<svg width="400" height="100" viewBox="0 0 400 100" xmlns="http://www.w3.org/2000/svg">
  <defs>
    <linearGradient id="braceletCord" x1="0%" y1="0%" x2="100%" y2="0%">
      <stop offset="0%" style="stop-color:#8B7355"/>
      <stop offset="50%" style="stop-color:#A0845C"/>
      <stop offset="100%" style="stop-color:#8B7355"/>
    </linearGradient>
    <radialGradient id="beadGradient" cx="30%" cy="30%">
      <stop offset="0%" style="stop-color:#E5E7EB"/>
      <stop offset="70%" style="stop-color:#9CA3AF"/>
      <stop offset="100%" style="stop-color:#6B7280"/>
    </radialGradient>
  </defs>
  
  <!-- Base cord -->
  <rect x="20" y="47" width="360" height="6" rx="3" fill="url(#braceletCord)" stroke="#6B7280" stroke-width="0.5"/>
  
  <!-- Sample bead pattern -->
  <g>
    <!-- Red bead -->
    <circle cx="60" cy="50" r="12" fill="#DC2626" stroke="#991B1B" stroke-width="0.8"/>
    <circle cx="60" cy="50" r="3" fill="#FEE2E2" opacity="0.7"/>
    
    <!-- Blue bead -->
    <circle cx="100" cy="50" r="12" fill="#2563EB" stroke="#1D4ED8" stroke-width="0.8"/>
    <circle cx="100" cy="50" r="3" fill="#DBEAFE" opacity="0.7"/>
    
    <!-- Yellow bead -->
    <circle cx="140" cy="50" r="12" fill="#FBBF24" stroke="#D97706" stroke-width="0.8"/>
    <circle cx="140" cy="50" r="3" fill="#FFFBEB" opacity="0.7"/>
    
    <!-- Green bead -->
    <circle cx="180" cy="50" r="12" fill="#059669" stroke="#047857" stroke-width="0.8"/>
    <circle cx="180" cy="50" r="3" fill="#ECFDF5" opacity="0.7"/>
    
    <!-- Gold bead -->
    <circle cx="220" cy="50" r="12" fill="#D97706" stroke="#B45309" stroke-width="0.8"/>
    <circle cx="220" cy="50" r="3" fill="#FFFBEB" opacity="0.8"/>
    
    <!-- Pattern repeat -->
    <circle cx="260" cy="50" r="12" fill="#DC2626" stroke="#991B1B" stroke-width="0.8"/>
    <circle cx="260" cy="50" r="3" fill="#FEE2E2" opacity="0.7"/>
    
    <circle cx="300" cy="50" r="12" fill="#2563EB" stroke="#1D4ED8" stroke-width="0.8"/>
    <circle cx="300" cy="50" r="3" fill="#DBEAFE" opacity="0.7"/>
    
    <circle cx="340" cy="50" r="12" fill="#FBBF24" stroke="#D97706" stroke-width="0.8"/>
    <circle cx="340" cy="50" r="3" fill="#FFFBEB" opacity="0.7"/>
  </g>
  
  <!-- Cord highlights -->
  <rect x="20" y="48" width="360" height="2" rx="1" fill="#D4AF37" opacity="0.6"/>
  
  <!-- Shadow -->
  <ellipse cx="200" cy="75" rx="180" ry="8" fill="#000" opacity="0.1"/>
</svg>