<svg width="1000" height="300" viewBox="0 0 1000 300" xmlns="http://www.w3.org/2000/svg">
  <!-- Elegant Gold Bracelet - Horizontal Line -->
  <defs>
    <!-- Gold gradient -->
    <linearGradient id="goldGradient" x1="0%" y1="0%" x2="0%" y2="100%">
      <stop offset="0%" style="stop-color:#fef3c7;stop-opacity:1" />
      <stop offset="25%" style="stop-color:#fcd34d;stop-opacity:1" />
      <stop offset="75%" style="stop-color:#f59e0b;stop-opacity:1" />
      <stop offset="100%" style="stop-color:#d97706;stop-opacity:1" />
    </linearGradient>
    
    <!-- Shadow filter -->
    <filter id="braceletShadow" x="-50%" y="-50%" width="200%" height="200%">
      <feDropShadow dx="0" dy="3" stdDeviation="2" flood-color="#00000030"/>
    </filter>
    
    <!-- Elegant pattern -->
    <pattern id="elegantPattern" x="0" y="0" width="25" height="20" patternUnits="userSpaceOnUse">
      <circle cx="12.5" cy="10" r="1.5" fill="white" opacity="0.4"/>
      <circle cx="6" cy="10" r="0.8" fill="white" opacity="0.3"/>
      <circle cx="19" cy="10" r="0.8" fill="white" opacity="0.3"/>
    </pattern>
  </defs>
  
  <!-- Background -->
  <rect width="1000" height="300" fill="#f8fafc"/>
  
  <!-- Main bracelet - elegant curved horizontal line -->
  <path d="M 100 135 Q 300 125 500 140 Q 700 155 900 145 L 900 165 Q 700 175 500 160 Q 300 145 100 155 Z" 
        fill="url(#goldGradient)" 
        filter="url(#braceletShadow)"
        stroke="#d97706" 
        stroke-width="0.5"/>
  
  <!-- Elegant pattern overlay -->
  <path d="M 100 135 Q 300 125 500 140 Q 700 155 900 145 L 900 165 Q 700 175 500 160 Q 300 145 100 155 Z" 
        fill="url(#elegantPattern)" 
        opacity="0.6"/>
  
  <!-- Top highlight -->
  <path d="M 100 135 Q 300 125 500 140 Q 700 155 900 145" 
        fill="none" 
        stroke="white" 
        stroke-width="2" 
        opacity="0.9"/>
  
  <!-- Bottom shadow -->
  <path d="M 100 155 Q 300 145 500 160 Q 700 175 900 165" 
        fill="none" 
        stroke="#b45309" 
        stroke-width="1" 
        opacity="0.7"/>
</svg>