<svg width="200" height="80" viewBox="0 0 200 80" xmlns="http://www.w3.org/2000/svg">
  <!-- Box Chain - Square box links -->
  <defs>
    <linearGradient id="boxGrad" x1="0%" y1="0%" x2="100%" y2="100%">
      <stop offset="0%" style="stop-color:#f0f0f0"/>
      <stop offset="50%" style="stop-color:#d5d5d5"/>
      <stop offset="100%" style="stop-color:#a8a8a8"/>
    </linearGradient>
  </defs>
  
  <!-- Box links -->
  <rect x="10" y="35" width="12" height="10" rx="1" fill="url(#boxGrad)" stroke="#777" stroke-width="1"/>
  <rect x="27" y="35" width="12" height="10" rx="1" fill="url(#boxGrad)" stroke="#777" stroke-width="1"/>
  <rect x="44" y="35" width="12" height="10" rx="1" fill="url(#boxGrad)" stroke="#777" stroke-width="1"/>
  <rect x="61" y="35" width="12" height="10" rx="1" fill="url(#boxGrad)" stroke="#777" stroke-width="1"/>
  <rect x="78" y="35" width="12" height="10" rx="1" fill="url(#boxGrad)" stroke="#777" stroke-width="1"/>
  <rect x="95" y="35" width="12" height="10" rx="1" fill="url(#boxGrad)" stroke="#777" stroke-width="1"/>
  <rect x="112" y="35" width="12" height="10" rx="1" fill="url(#boxGrad)" stroke="#777" stroke-width="1"/>
  <rect x="129" y="35" width="12" height="10" rx="1" fill="url(#boxGrad)" stroke="#777" stroke-width="1"/>
  <rect x="146" y="35" width="12" height="10" rx="1" fill="url(#boxGrad)" stroke="#777" stroke-width="1"/>
  <rect x="163" y="35" width="12" height="10" rx="1" fill="url(#boxGrad)" stroke="#777" stroke-width="1"/>
  
  <!-- Connection points -->
  <circle cx="22" cy="40" r="2" fill="#999"/>
  <circle cx="39" cy="40" r="2" fill="#999"/>
  <circle cx="56" cy="40" r="2" fill="#999"/>
  <circle cx="73" cy="40" r="2" fill="#999"/>
  <circle cx="90" cy="40" r="2" fill="#999"/>
  <circle cx="107" cy="40" r="2" fill="#999"/>
  <circle cx="124" cy="40" r="2" fill="#999"/>
  <circle cx="141" cy="40" r="2" fill="#999"/>
  <circle cx="158" cy="40" r="2" fill="#999"/>
  
  <!-- Box highlights -->
  <rect x="11" y="36" width="10" height="2" rx="0.5" fill="#fff" opacity="0.6"/>
  <rect x="28" y="36" width="10" height="2" rx="0.5" fill="#fff" opacity="0.6"/>
  <rect x="45" y="36" width="10" height="2" rx="0.5" fill="#fff" opacity="0.6"/>
  <rect x="62" y="36" width="10" height="2" rx="0.5" fill="#fff" opacity="0.6"/>
  <rect x="79" y="36" width="10" height="2" rx="0.5" fill="#fff" opacity="0.6"/>
  <rect x="96" y="36" width="10" height="2" rx="0.5" fill="#fff" opacity="0.6"/>
  <rect x="113" y="36" width="10" height="2" rx="0.5" fill="#fff" opacity="0.6"/>
  <rect x="130" y="36" width="10" height="2" rx="0.5" fill="#fff" opacity="0.6"/>
  <rect x="147" y="36" width="10" height="2" rx="0.5" fill="#fff" opacity="0.6"/>
  <rect x="164" y="36" width="10" height="2" rx="0.5" fill="#fff" opacity="0.6"/>
</svg>