<svg width="200" height="80" viewBox="0 0 200 80" xmlns="http://www.w3.org/2000/svg">
  <!-- Cable Chain - Classic oval links -->
  <defs>
    <linearGradient id="cableGrad" x1="0%" y1="0%" x2="100%" y2="100%">
      <stop offset="0%" style="stop-color:#f0f0f0"/>
      <stop offset="50%" style="stop-color:#d4d4d4"/>
      <stop offset="100%" style="stop-color:#a3a3a3"/>
    </linearGradient>
  </defs>
  
  <!-- Chain links -->
  <ellipse cx="20" cy="40" rx="12" ry="8" fill="url(#cableGrad)" stroke="#888" stroke-width="1.5"/>
  <ellipse cx="45" cy="40" rx="8" ry="12" fill="url(#cableGrad)" stroke="#888" stroke-width="1.5"/>
  <ellipse cx="70" cy="40" rx="12" ry="8" fill="url(#cableGrad)" stroke="#888" stroke-width="1.5"/>
  <ellipse cx="95" cy="40" rx="8" ry="12" fill="url(#cableGrad)" stroke="#888" stroke-width="1.5"/>
  <ellipse cx="120" cy="40" rx="12" ry="8" fill="url(#cableGrad)" stroke="#888" stroke-width="1.5"/>
  <ellipse cx="145" cy="40" rx="8" ry="12" fill="url(#cableGrad)" stroke="#888" stroke-width="1.5"/>
  <ellipse cx="170" cy="40" rx="12" ry="8" fill="url(#cableGrad)" stroke="#888" stroke-width="1.5"/>
  
  <!-- Highlight effects -->
  <ellipse cx="20" cy="35" rx="8" ry="4" fill="#fff" opacity="0.4"/>
  <ellipse cx="45" cy="32" rx="4" ry="6" fill="#fff" opacity="0.4"/>
  <ellipse cx="70" cy="35" rx="8" ry="4" fill="#fff" opacity="0.4"/>
  <ellipse cx="95" cy="32" rx="4" ry="6" fill="#fff" opacity="0.4"/>
  <ellipse cx="120" cy="35" rx="8" ry="4" fill="#fff" opacity="0.4"/>
  <ellipse cx="145" cy="32" rx="4" ry="6" fill="#fff" opacity="0.4"/>
  <ellipse cx="170" cy="35" rx="8" ry="4" fill="#fff" opacity="0.4"/>
</svg>