<svg width="200" height="80" viewBox="0 0 200 80" xmlns="http://www.w3.org/2000/svg">
  <!-- Curb Chain - Flat interlocking links -->
  <defs>
    <linearGradient id="curbGrad" x1="0%" y1="0%" x2="100%" y2="100%">
      <stop offset="0%" style="stop-color:#f8f8f8"/>
      <stop offset="50%" style="stop-color:#e0e0e0"/>
      <stop offset="100%" style="stop-color:#b0b0b0"/>
    </linearGradient>
  </defs>
  
  <!-- Flat chain links -->
  <rect x="10" y="35" width="25" height="10" rx="5" fill="url(#curbGrad)" stroke="#777" stroke-width="1"/>
  <rect x="30" y="35" width="25" height="10" rx="5" fill="url(#curbGrad)" stroke="#777" stroke-width="1"/>
  <rect x="50" y="35" width="25" height="10" rx="5" fill="url(#curbGrad)" stroke="#777" stroke-width="1"/>
  <rect x="70" y="35" width="25" height="10" rx="5" fill="url(#curbGrad)" stroke="#777" stroke-width="1"/>
  <rect x="90" y="35" width="25" height="10" rx="5" fill="url(#curbGrad)" stroke="#777" stroke-width="1"/>
  <rect x="110" y="35" width="25" height="10" rx="5" fill="url(#curbGrad)" stroke="#777" stroke-width="1"/>
  <rect x="130" y="35" width="25" height="10" rx="5" fill="url(#curbGrad)" stroke="#777" stroke-width="1"/>
  <rect x="150" y="35" width="25" height="10" rx="5" fill="url(#curbGrad)" stroke="#777" stroke-width="1"/>
  
  <!-- Interlocking effect -->
  <rect x="25" y="32" width="15" height="16" rx="7" fill="none" stroke="#777" stroke-width="1" opacity="0.6"/>
  <rect x="65" y="32" width="15" height="16" rx="7" fill="none" stroke="#777" stroke-width="1" opacity="0.6"/>
  <rect x="105" y="32" width="15" height="16" rx="7" fill="none" stroke="#777" stroke-width="1" opacity="0.6"/>
  <rect x="145" y="32" width="15" height="16" rx="7" fill="none" stroke="#777" stroke-width="1" opacity="0.6"/>
  
  <!-- Highlights -->
  <rect x="12" y="36" width="21" height="3" rx="1.5" fill="#fff" opacity="0.5"/>
  <rect x="32" y="36" width="21" height="3" rx="1.5" fill="#fff" opacity="0.5"/>
  <rect x="52" y="36" width="21" height="3" rx="1.5" fill="#fff" opacity="0.5"/>
  <rect x="72" y="36" width="21" height="3" rx="1.5" fill="#fff" opacity="0.5"/>
  <rect x="92" y="36" width="21" height="3" rx="1.5" fill="#fff" opacity="0.5"/>
  <rect x="112" y="36" width="21" height="3" rx="1.5" fill="#fff" opacity="0.5"/>
  <rect x="132" y="36" width="21" height="3" rx="1.5" fill="#fff" opacity="0.5"/>
  <rect x="152" y="36" width="21" height="3" rx="1.5" fill="#fff" opacity="0.5"/>
</svg>